<svg xmlns="http://www.w3.org/2000/svg" viewBox="0 0 1440 50" preserveAspectRatio="none">
  <path fill="#eee9df" d="M0,34 C35,31 47,25 78,28 C116,32 128,20 166,23 C204,26 219,34 257,29 C293,24 314,14 351,18 C390,22 403,32 440,28 C481,24 494,16 535,20 C575,24 591,31 633,26 C673,21 690,15 731,19 C773,23 790,32 831,28 C871,24 889,18 930,22 C971,26 988,34 1029,30 C1067,26 1085,17 1125,20 C1163,23 1181,32 1222,27 C1265,22 1277,15 1320,19 C1362,23 1384,30 1440,25 L1440,50 L0,50 Z"/>
  <path fill="none" stroke="#d6d0c6" stroke-width="1" opacity=".55" d="M18,35 C130,27 220,31 338,20 C490,31 641,20 780,26 C932,33 1064,20 1215,28 C1295,17 1364,26 1425,23"/>
  <path fill="none" stroke="#bdb5aa" stroke-width=".8" opacity=".35" d="M74,41 L132,36 M426,39 L512,34 M920,38 L1002,32 M1190,38 L1265,34"/>
</svg>
