<svg xmlns="http://www.w3.org/2000/svg" viewBox="0 0 1440 50" preserveAspectRatio="none">
  <path fill="#eee9df" d="M0,0 L1440,0 L1440,25 C1398,29 1381,37 1338,33 C1297,29 1278,19 1236,23 C1194,27 1176,36 1134,32 C1093,28 1077,21 1037,25 C997,29 978,39 936,35 C895,31 878,23 837,27 C796,31 779,39 738,35 C697,31 680,22 638,26 C596,30 579,38 538,34 C497,30 479,20 438,24 C397,28 381,36 340,32 C298,28 280,20 239,24 C199,28 181,38 140,34 C98,30 75,22 0,29 Z"/>
  <path fill="none" stroke="#d6d0c6" stroke-width="1" opacity=".55" d="M10,27 C125,37 260,24 391,31 C532,39 660,24 810,31 C960,39 1090,24 1218,31 C1300,40 1360,25 1430,27"/>
  <path fill="none" stroke="#bdb5aa" stroke-width=".8" opacity=".35" d="M185,17 L252,22 M604,16 L690,23 M988,14 L1080,21 M1270,15 L1340,21"/>
</svg>
